<?xml version="1.0" encoding="UTF-8"?>
<!DOCTYPE svg PUBLIC "-//W3C//DTD SVG 1.1//EN" "http://www.w3.org/Graphics/SVG/1.1/DTD/svg11.dtd">
<svg xmlns="http://www.w3.org/2000/svg" version="1.1" width="512px" height="512px" style="shape-rendering:geometricPrecision; text-rendering:geometricPrecision; image-rendering:optimizeQuality; fill-rule:evenodd; clip-rule:evenodd" xmlns:xlink="http://www.w3.org/1999/xlink">
<g><path style="opacity:0.947" fill="#000000" d="M 235.5,-0.5 C 248.833,-0.5 262.167,-0.5 275.5,-0.5C 326.447,5.38941 369.28,27.0561 404,64.5C 406.715,73.4102 403.549,78.7435 394.5,80.5C 391.567,80.534 388.9,79.7007 386.5,78C 340.192,31.4552 284.525,13.7885 219.5,25C 182.316,33.0849 150.649,50.7515 124.5,78C 115.657,82.9774 109.49,80.8108 106,71.5C 105.612,68.3154 106.279,65.3154 108,62.5C 142.995,26.4194 185.495,5.41945 235.5,-0.5 Z"/></g>
<g><path style="opacity:0.945" fill="#000000" d="M 239.5,63.5 C 286.191,60.1134 326.025,74.78 359,107.5C 363.191,114.884 361.691,120.717 354.5,125C 351.5,125.667 348.5,125.667 345.5,125C 306.203,86.2407 260.536,76.2407 208.5,95C 192.245,102.29 177.911,112.29 165.5,125C 154.35,127.177 149.183,122.677 150,111.5C 152.748,106.748 156.248,102.581 160.5,99C 183.435,79.5314 209.768,67.6981 239.5,63.5 Z"/></g>
<g><path style="opacity:0.941" fill="#000000" d="M 251.5,127.5 C 276.24,127.128 297.407,135.462 315,152.5C 320.241,162.43 317.407,168.763 306.5,171.5C 300.269,169.448 294.935,165.948 290.5,161C 261.382,144.146 234.382,147.146 209.5,170C 197.636,172.472 192.469,167.638 194,155.5C 202.108,146.023 211.941,138.857 223.5,134C 232.694,130.599 242.028,128.432 251.5,127.5 Z"/></g>
<g><path style="opacity:0.957" fill="#000000" d="M 268.5,511.5 C 259.833,511.5 251.167,511.5 242.5,511.5C 200.381,502.305 176.214,476.305 170,433.5C 169.333,378.833 169.333,324.167 170,269.5C 176.112,226.775 200.279,200.942 242.5,192C 284.199,188.26 314.699,204.76 334,241.5C 337.586,250.51 339.919,259.844 341,269.5C 341.667,324.167 341.667,378.833 341,433.5C 334.786,476.305 310.619,502.305 268.5,511.5 Z M 246.5,213.5 C 282.117,211.982 305.617,227.982 317,261.5C 317.995,266.453 318.662,271.453 319,276.5C 319.667,326.5 319.667,376.5 319,426.5C 315.238,465.095 294.071,486.095 255.5,489.5C 216.929,486.095 195.762,465.095 192,426.5C 191.333,376.5 191.333,326.5 192,276.5C 195.323,242.452 213.489,221.452 246.5,213.5 Z M 249.5,256.5 C 264.759,254.763 273.759,261.429 276.5,276.5C 272.476,295.512 261.476,301.345 243.5,294C 230.224,278.958 232.224,266.458 249.5,256.5 Z"/></g>
<g><path style="opacity:0.948" fill="#000000" d="M 251.5,233.5 C 276.256,233.62 291.756,245.62 298,269.5C 300.126,295.1 288.959,311.6 264.5,319C 236.908,322.05 219.742,310.216 213,283.5C 211.437,255.58 224.27,238.914 251.5,233.5 Z M 249.5,256.5 C 232.224,266.458 230.224,278.958 243.5,294C 261.476,301.345 272.476,295.512 276.5,276.5C 273.759,261.429 264.759,254.763 249.5,256.5 Z"/></g>
</svg>
